<svg xmlns="http://www.w3.org/2000/svg" version="1.1" xmlns:xlink="http://www.w3.org/1999/xlink" viewBox="0 0 200 200"><rect width="200" height="200" fill="url('#gradient')"></rect><defs><linearGradient id="gradient" gradientTransform="rotate(45 0.5 0.5)"><stop offset="0%" stop-color="#2a2a2d"></stop><stop offset="100%" stop-color="#2a2a2d"></stop></linearGradient></defs><g><g fill="#2897ff" transform="matrix(5.023198773633112,0,0,5.023198773633112,54.84218361546144,130.3401556649498)" stroke="#000000" stroke-width="0"><path d="M6.10 1.79L5.49 3.52Q1.97 2.53 1.97-1.03L1.97-1.03L1.97-2.96Q1.97-4.93 0.39-4.93L0.39-4.93L0.39-7.15Q1.97-7.15 1.97-9.13L1.97-9.13L1.97-11.18Q2.00-12.94 2.89-14.02Q3.77-15.11 5.49-15.60L5.49-15.60L6.10-13.88Q4.87-13.41 4.82-11.25L4.82-11.25L4.82-9.13Q4.82-6.94 3.02-6.04L3.02-6.04Q4.82-5.15 4.82-2.95L4.82-2.95L4.82-0.84Q4.87 1.32 6.10 1.79L6.10 1.79ZM12.49 3.52L11.88 1.79Q13.11 1.32 13.15-0.84L13.15-0.84L13.15-2.96Q13.15-5.16 14.97-6.04L14.97-6.04Q13.15-6.93 13.15-9.13L13.15-9.13L13.15-11.25Q13.11-13.41 11.88-13.88L11.88-13.88L12.49-15.60Q14.24-15.11 15.12-14.00Q16.00-12.89 16.01-11.09L16.01-11.09L16.01-9.13Q16.01-7.15 17.59-7.15L17.59-7.15L17.59-4.93Q16.01-4.93 16.01-2.97L16.01-2.97L16.01-0.89Q15.94 2.55 12.49 3.52L12.49 3.52Z"></path></g></g></svg>